<?xml version="1.0" encoding="UTF-8"?>
<svg id="Layer_2" data-name="Layer 2" xmlns="http://www.w3.org/2000/svg" xmlns:xlink="http://www.w3.org/1999/xlink" viewBox="0 0 430.06 447.26">
  <defs>
    <style>
      .cls-1 {
        fill: #ffd194;
      }

      .cls-2 {
        fill: #fff;
      }

      .cls-3 {
        fill: #f4ce2c;
      }

      .cls-4 {
        opacity: .52;
      }

      .cls-5 {
        clip-path: url(#clippath-2);
      }

      .cls-6 {
        clip-path: url(#clippath-1);
      }

      .cls-7 {
        clip-path: url(#clippath-4);
      }

      .cls-8 {
        fill: #f4b04e;
      }

      .cls-9 {
        opacity: .15;
      }

      .cls-10 {
        opacity: .47;
      }

      .cls-11 {
        fill: #2d3962;
      }

      .cls-12 {
        fill: #9bbbea;
      }

      .cls-13 {
        clip-path: url(#clippath);
      }

      .cls-14 {
        fill: none;
      }

      .cls-15 {
        fill: #ffceab;
      }

      .cls-16 {
        fill: #e8e8e8;
      }

      .cls-17 {
        clip-path: url(#clippath-3);
      }

      .cls-18 {
        fill: #56b2a1;
      }

      .cls-19 {
        fill: #97ddcf;
      }

      .cls-20 {
        fill: #aacbf2;
      }

      .cls-21 {
        fill: #d89741;
      }

      .cls-22 {
        fill: #459687;
      }

      .cls-23 {
        fill: #468e80;
      }
    </style>
    <clipPath id="clippath">
      <path class="cls-14" d="m254.25,94.93c0-21.66-17.56-39.22-39.22-39.22s-39.22,17.56-39.22,39.22h78.44Z"/>
    </clipPath>
    <clipPath id="clippath-1">
      <path class="cls-14" d="m217.57,282.91h-.04c-.34,0-.68.04-1,.11l.44-3.65-21.91.05,2.24,19.92c3.08,1.41,17.19.49,17.19.49l.87-7.12c.69.33,1.43.52,2.21.52h.04c1.38,0,2.67-.56,3.64-1.54.97-.98,1.49-2.28,1.48-3.66-.02-2.83-2.33-5.12-5.16-5.12Zm2.1,7.23c-.55.56-1.29.87-2.08.88h-.02c-.71,0-1.38-.26-1.92-.73l.59-4.83c.4-.2.84-.33,1.31-.33h.02c1.62,0,2.94,1.31,2.95,2.93,0,.79-.29,1.53-.85,2.09Z"/>
    </clipPath>
    <clipPath id="clippath-2">
      <path class="cls-14" d="m280.02,244.35h34.05c2.02,0,3.75-1.75,4.06-4.13l2.34-17.91c.39-2.96-1.54-5.62-4.06-5.62h-34.05c-2.02,0-3.75,1.75-4.06,4.13l-2.34,17.91c-.39,2.96,1.54,5.62,4.06,5.62Z"/>
    </clipPath>
    <clipPath id="clippath-3">
      <path class="cls-14" d="m369.19,404.66l-9.97,41.78h45.97l-8.95-41.48c-.28-1.29-1.42-2.22-2.74-2.24l-21.52-.24c-1.32-.01-2.48.89-2.79,2.18Z"/>
    </clipPath>
    <clipPath id="clippath-4">
      <rect class="cls-14" x="300.73" y="117.06" width="32.57" height="21.71" rx="2.09" ry="2.09"/>
    </clipPath>
  </defs>
  <g id="OBJECTS">
    <g>
      <g>
        <g>
          <path class="cls-11" d="m215.03,68.24c-.42,0-.77-.34-.77-.77V.77c0-.42.34-.77.77-.77s.77.34.77.77v66.7c0,.42-.34.77-.77.77Z"/>
          <path class="cls-8" d="m254.25,94.93c0-21.66-17.56-39.22-39.22-39.22s-39.22,17.56-39.22,39.22h78.44Z"/>
          <g class="cls-13">
            <g class="cls-10">
              <path class="cls-2" d="m243.39,58.45c-6.32,4.96-15.18,6.5-22.8,3.96-1.96-.65-3.87-1.56-5.93-1.7-4.85-.32-8.98,3.65-13.79,4.36-5.53.81-10.66-2.74-15.12-6.11,0,0,15.2-14.48,30.55-11.49,15.35,2.99,27.11,10.97,27.11,10.97Z"/>
            </g>
            <g class="cls-4">
              <path class="cls-21" d="m170.15,81.5c8.75-3.92,19.05-4.26,28.04-.93,4.95,1.83,9.7,4.76,14.98,4.75,4.72-.01,9.08-2.4,13.71-3.29,4.05-.78,8.31-.38,12.15,1.14,1.65.65,3.24,1.51,4.98,1.85,2.76.53,5.58-.32,8.39-.44,4.49-.2,9.04,1.56,12.24,4.72l-1.22,16.7-94.03-5.59.77-18.91Z"/>
            </g>
          </g>
        </g>
        <g class="cls-9">
          <polygon class="cls-3" points="175.46 95.19 56.37 446.94 379.66 446.94 253.9 95.19 175.46 95.19"/>
        </g>
      </g>
      <path class="cls-18" d="m143.25,353.86c3.22.01,5.96-2.34,6.43-5.52,1.62-10.99,1.04-50.26-8.11-55.42-17.11-9.65-29.4-2.63-39.93-10.09-10.53-7.46-6.73-42.31-24.57-46.51-29.83-7.02-57.21,2.5-57.21,2.5l-1.82,44.9,22.61,69.75,102.6.39Z"/>
      <path class="cls-11" d="m92.56,261.69s-4.36,46.67,6.93,50.36c12.01,3.93,47.48-3.06,50.38,14.78,0,0,3.3-23.66-3.72-30.96-13.42-13.96-36.82-7.09-42.22-12.07s-11.38-22.12-11.38-22.12Z"/>
      <path class="cls-11" d="m145.13,445.35l-57.97-31.75v-52.75h39.41c4.65,0,8.41-3.77,8.41-8.41H41.09c0,4.65,3.77,8.41,8.41,8.41h32.83v53.14l-57.27,31.36,9.85-.21,47.42-14.88v14.99h4.83v-15.21l48.12,15.1,9.85.21Z"/>
      <g>
        <g>
          <polygon class="cls-15" points="205.55 419.8 196.67 405.95 184.36 414.22 194.91 429.59 205.55 419.8"/>
          <polygon class="cls-2" points="202.03 413.45 189.54 421.84 193.69 427.98 205.26 419.08 202.03 413.45"/>
          <path class="cls-22" d="m232.13,414.6c-8.32,3.01-21.56,8.07-21.56,8.07l-4.25-4.96-14.08,9.73s7.59,14.09,8.42,15.36,2.63,4.5,4.84,3.16c5.63-3.41,37.62-25.09,42.56-30.02,1.25-1.24-1-4.25-4.92-4.53-3.62-.25-8.71,2.37-11.01,3.2Z"/>
          <path class="cls-11" d="m211.82,431.82c-.73,0-1.36-.42-1.79-1.19-.68-1.22-.94-7.35-.82-8.72.02-.23.17-.43.39-.51.22-.08.46-.02.62.14,1.21,1.23,3.86,5.59,3.7,8.18-.07,1.18-.71,1.91-1.8,2.08-.1.01-.2.02-.3.02Zm-1.45-8.15c.06,2.3.35,5.77.69,6.38.36.65.73.6.88.57.39-.06.75-.21.79-.97.09-1.58-1.24-4.27-2.37-5.98Z"/>
          <path class="cls-11" d="m216.09,428.88c-.31,0-.67-.07-1.08-.26-1.27-.6-5.05-5.42-5.76-6.6-.12-.2-.11-.45.02-.64.13-.19.36-.28.59-.25,1.69.29,6.39,2.28,7.78,4.48.63,1,.54,1.97-.25,2.74-.24.23-.67.54-1.3.54Zm-4.86-6.11c1.39,1.84,3.65,4.48,4.29,4.78.68.32.94.06,1.05-.05.28-.27.48-.61.08-1.25-.85-1.34-3.51-2.74-5.42-3.47Z"/>
          <path class="cls-11" d="m202.35,445.24c-.19,0-.37-.09-.49-.26-.19-.27-.12-.64.15-.82l45-31.05c.27-.19.64-.12.82.15.19.27.12.64-.15.82l-45,31.05c-.1.07-.22.1-.34.1Z"/>
          <path class="cls-11" d="m224.03,421.49c-.32,0-.59-.26-.59-.58-.05-3.17.67-4.46.75-4.6.17-.28.53-.37.81-.21.28.17.37.53.21.81-.02.03-.63,1.17-.59,3.98,0,.33-.26.6-.58.6h0Z"/>
          <path class="cls-11" d="m220.56,422.88c-.32,0-.59-.26-.59-.58-.05-3.17.67-4.46.75-4.6.17-.28.53-.38.81-.21.28.17.37.52.21.81-.02.03-.63,1.18-.59,3.98,0,.33-.26.6-.58.6h0Z"/>
          <path class="cls-11" d="m217.35,423.98c-.32,0-.59-.26-.59-.58-.05-3.17.67-4.46.75-4.6.17-.28.53-.37.81-.21.28.17.37.53.21.81-.01.02-.63,1.17-.58,3.98,0,.33-.26.6-.58.6h0Z"/>
        </g>
        <path class="cls-20" d="m103.07,290.63c19.6,18.08,40.97,29.61,59.44,52.04,18.47,22.43,26.43,42.64,39.16,65.01-5.5,4.09-16.25,12.92-20.43,11.81-2.65-.7-33.03-38.31-51.62-57.67-9.94-10.35-38.19-13.75-54.01-21.46-12.99-6.34-20.13-18-15.12-54.65"/>
      </g>
      <g>
        <polygon class="cls-11" points="205.97 307.26 197.45 304.67 174.91 446.18 181.2 446.42 205.97 307.26"/>
        <rect class="cls-23" x="192.35" y="305.71" width="17.93" height="7.17"/>
        <polygon class="cls-11" points="354.2 307.26 362.73 304.67 385.27 446.18 378.97 446.42 354.2 307.26"/>
        <rect class="cls-23" x="349.9" y="305.71" width="17.93" height="7.17" transform="translate(717.72 618.58) rotate(180)"/>
        <rect class="cls-18" x="189.31" y="299.48" width="181" height="9.57"/>
      </g>
      <g>
        <path class="cls-2" d="m205.04,282.53s6.28-9.44,4.53-16.99c-.92-3.97-4.1-6.74-6.93-9.43-3.54-3.37-4.6-5.29-4.75-10.33-.07-2.15-.23-4.38-1.27-6.27-1.04-1.89-3.19-3.32-5.29-2.88-1.91.4-3.27,2.24-3.63,4.15-.37,1.92.08,3.89.67,5.75,1.26,3.99,3.22,7.82,6.01,10.96,2.53,2.83,6.82,4.87,8.58,8.28,4,7.8,2.09,16.77,2.09,16.77Z"/>
        <path class="cls-2" d="m193.71,264.49c1.57-.64,3.48.38,4.81,1.43s1.88,3.27.65,4.44c-.93.89-2.45.8-3.63.29-1.37-.59-2.56-1.77-2.79-3.24-.23-1.47.26-2.62.97-2.91Z"/>
        <path class="cls-2" d="m203.79,248.1c1.61-.84,4.77.17,4.47,2.35-.11.84-.78,1.56-1.58,1.82-.81.26-1.72.1-2.44-.35-.66-.41-1.18-1.08-1.32-1.84-.18-.99.22-1.64.87-1.98Z"/>
        <g>
          <path class="cls-8" d="m217.57,282.91h-.04c-.34,0-.68.04-1,.11l.44-3.65-21.91.05,2.24,19.92c3.08,1.41,17.19.49,17.19.49l.87-7.12c.69.33,1.43.52,2.21.52h.04c1.38,0,2.67-.56,3.64-1.54.97-.98,1.49-2.28,1.48-3.66-.02-2.83-2.33-5.12-5.16-5.12Zm2.1,7.23c-.55.56-1.29.87-2.08.88h-.02c-.71,0-1.38-.26-1.92-.73l.59-4.83c.4-.2.84-.33,1.31-.33h.02c1.62,0,2.94,1.31,2.95,2.93,0,.79-.29,1.53-.85,2.09Z"/>
          <g class="cls-6">
            <g class="cls-4">
              <path class="cls-21" d="m220.7,290.19c-2.33-.96-4.99-.34-7.36.5-2.38.84-4.78,1.89-7.29,1.73-1.52-.09-2.99-.62-4.51-.62-2.9,0-5.4,1.89-7.67,3.69-.2.16.21.45-.05.44l.46,7.37,25.68-2.87.76-10.24Z"/>
            </g>
            <g class="cls-10">
              <path class="cls-2" d="m191.71,283.13c1.91.43,3.64,1.43,5.46,2.17,1.82.74,3.88,1.21,5.73.55,1.93-.7,3.37-2.55,5.4-2.85.85-.13,1.71.04,2.57.11,3.03.25,6.13-.74,8.46-2.69l-.89-5.45-26.08.65-.65,7.52Z"/>
            </g>
          </g>
        </g>
      </g>
      <g>
        <polygon class="cls-11" points="310.35 279.26 315.89 299.43 264.07 299.43 283.06 294.29 277.91 279.65 310.35 279.26"/>
        <g>
          <path class="cls-18" d="m242.72,282.11h109.06c6.48,0,12-5.61,12.99-13.22l7.49-57.37c1.24-9.47-4.93-18.01-12.99-18.01h-109.06c-6.48,0-12,5.61-12.99,13.22l-7.49,57.37c-1.24,9.47,4.93,18.01,12.99,18.01Z"/>
          <path class="cls-11" d="m229.73,264.1c-1.24,9.47,4.93,18.01,12.99,18.01h109.06c6.48,0,12-5.61,12.99-13.22l.59-4.2-135.63-.59Z"/>
          <g>
            <path class="cls-2" d="m268.17,253.35h56.23c3.34,0,6.18-2.89,6.7-6.82l3.86-29.58c.64-4.88-2.54-9.28-6.7-9.28h-56.23c-3.34,0-6.18,2.89-6.7,6.82l-3.86,29.58c-.64,4.88,2.54,9.28,6.7,9.28Z"/>
            <path class="cls-16" d="m280.02,244.35h34.05c2.02,0,3.75-1.75,4.06-4.13l2.34-17.91c.39-2.96-1.54-5.62-4.06-5.62h-34.05c-2.02,0-3.75,1.75-4.06,4.13l-2.34,17.91c-.39,2.96,1.54,5.62,4.06,5.62Z"/>
            <path class="cls-18" d="m320.43,221.82c.39-2.96-1.5-5.13-4.02-5.13h-34.05c-2.02,0-3.67,1.45-4.21,5l42.28.14Z"/>
            <g class="cls-5">
              <path class="cls-8" d="m296.23,229.29c2.12-1.86,5.34-1.64,7.2.47,1.86,2.12,1.64,5.34-.47,7.2s-5.34,1.64-7.2-.47c-1.86-2.12-1.64-5.34.47-7.2Z"/>
              <path class="cls-11" d="m316,245.64c-1.07-5.1-6.26-17.15-7.23-18.28-3.5,3.41-5.89,5.87-9.21,9.27-1.78-2.12-8.4-12.09-8.61-12.05-.26.04-12.87,19.59-13.29,20.85l38.34.21Z"/>
            </g>
            <circle class="cls-8" cx="271.9" cy="210.08" r=".71"/>
            <path class="cls-18" d="m275.24,210.08c0,.39-.32.71-.71.71s-.71-.32-.71-.71.32-.71.71-.71.71.32.71.71Z"/>
            <path class="cls-8" d="m282.92,218.51c0,.39-.32.71-.71.71s-.71-.32-.71-.71.32-.71.71-.71.71.32.71.71Z"/>
            <path class="cls-2" d="m285.55,218.51c0,.39-.32.71-.71.71s-.71-.32-.71-.71.32-.71.71-.71.71.32.71.71Z"/>
          </g>
          <path class="cls-18" d="m300.4,274.94h-12.91c-.83,0-1.5-.67-1.5-1.5h0c0-.83.67-1.5,1.5-1.5h12.91c.83,0,1.5.67,1.5,1.5h0c0,.83-.67,1.5-1.5,1.5Z"/>
        </g>
      </g>
      <path class="cls-11" d="m20.37,238.52s-2.25,40.36,14.43,44.31c16.68,3.95,41.03-.44,47.79,14.92,6.76,15.36,5.86,56.16,5.86,56.16l-46.89-.44s-32.11,1.84-32.46-34.22c-.27-27.26-6.76-69.76,11.27-80.73Z"/>
      <g>
        <g>
          <path class="cls-11" d="m295.56,80.6c-.34,0-.61-.27-.61-.61v-6.38c0-.34.27-.61.61-.61s.61.27.61.61v6.38c0,.34-.27.61-.61.61Z"/>
          <path class="cls-11" d="m298.75,77.41h-6.38c-.34,0-.61-.27-.61-.61s.27-.61.61-.61h6.38c.34,0,.61.27.61.61s-.27.61-.61.61Z"/>
        </g>
        <path class="cls-11" d="m116.02,116.92c-1.26,0-2.29-1.03-2.29-2.29s1.03-2.29,2.29-2.29,2.29,1.03,2.29,2.29-1.03,2.29-2.29,2.29Zm0-3.36c-.59,0-1.07.48-1.07,1.07s.48,1.07,1.07,1.07,1.07-.48,1.07-1.07-.48-1.07-1.07-1.07Z"/>
        <g>
          <path class="cls-11" d="m210.27,123.79c-.34,0-.61-.27-.61-.61v-6.38c0-.34.27-.61.61-.61s.61.27.61.61v6.38c0,.34-.27.61-.61.61Z"/>
          <path class="cls-11" d="m213.46,120.6h-6.38c-.34,0-.61-.27-.61-.61s.27-.61.61-.61h6.38c.34,0,.61.27.61.61s-.27.61-.61.61Z"/>
        </g>
        <path class="cls-11" d="m223.43,176.55c-1.26,0-2.29-1.03-2.29-2.29s1.03-2.29,2.29-2.29,2.29,1.03,2.29,2.29-1.03,2.29-2.29,2.29Zm0-3.36c-.59,0-1.07.48-1.07,1.07s.48,1.07,1.07,1.07,1.07-.48,1.07-1.07-.48-1.07-1.07-1.07Z"/>
        <g>
          <path class="cls-11" d="m172.06,184.16c-.34,0-.61-.27-.61-.61v-6.38c0-.34.27-.61.61-.61s.61.27.61.61v6.38c0,.34-.27.61-.61.61Z"/>
          <path class="cls-11" d="m175.25,180.97h-6.38c-.34,0-.61-.27-.61-.61s.27-.61.61-.61h6.38c.34,0,.61.27.61.61s-.27.61-.61.61Z"/>
        </g>
        <path class="cls-11" d="m159.19,254.22c-1.26,0-2.29-1.03-2.29-2.29s1.03-2.29,2.29-2.29,2.29,1.03,2.29,2.29-1.03,2.29-2.29,2.29Zm0-3.36c-.59,0-1.07.48-1.07,1.07s.48,1.07,1.07,1.07,1.07-.48,1.07-1.07-.48-1.07-1.07-1.07Z"/>
        <g>
          <path class="cls-11" d="m140.6,72.05c-.34,0-.61-.27-.61-.61v-6.38c0-.34.27-.61.61-.61s.61.27.61.61v6.38c0,.34-.27.61-.61.61Z"/>
          <path class="cls-11" d="m143.79,68.86h-6.38c-.34,0-.61-.27-.61-.61s.27-.61.61-.61h6.38c.34,0,.61.27.61.61s-.27.61-.61.61Z"/>
        </g>
        <path class="cls-11" d="m370.2,122.84c-1.26,0-2.29-1.03-2.29-2.29s1.03-2.29,2.29-2.29,2.29,1.03,2.29,2.29-1.03,2.29-2.29,2.29Zm0-3.36c-.59,0-1.07.48-1.07,1.07s.48,1.07,1.07,1.07,1.07-.48,1.07-1.07-.48-1.07-1.07-1.07Z"/>
      </g>
      <g>
        <g>
          <polygon class="cls-15" points="178.43 407.97 179.45 391.55 164.64 390.95 164.07 409.58 178.43 407.97"/>
          <polygon class="cls-2" points="179.35 400.77 164.32 400.15 164.03 407.56 178.63 407.22 179.35 400.77"/>
          <path class="cls-18" d="m202.96,419.48c-8.49-2.49-22.16-6.23-22.16-6.23l-.5-6.51-17.1-.47s-2.2,15.85-2.28,17.36c-.08,1.51-.54,5.19,2.03,5.41,6.56.57,45.17,1.99,52.08.93,1.74-.27,1.71-4.02-1.29-6.56-2.77-2.35-8.42-3.24-10.78-3.93Z"/>
          <path class="cls-11" d="m177.67,421.8c-.33,0-.68-.09-1.03-.27-.77-.4-1.12-1.18-.99-2.18.17-1.39,3.59-6.49,4.49-7.52.15-.17.39-.24.61-.18.22.07.39.25.42.48.25,1.7-.19,6.79-1.85,8.79-.48.58-1.05.88-1.66.88Zm2.37-7.86c-1.31,1.89-3.12,4.86-3.21,5.56-.09.74.23.91.37.98.35.18.73.27,1.22-.32,1.01-1.22,1.52-4.18,1.62-6.23Z"/>
          <path class="cls-11" d="m182.66,421.88c-.74,0-1.37-.42-1.8-1.21-.67-1.23-.87-7.36-.75-8.73.02-.23.17-.43.39-.5.22-.08.46-.02.62.15,1.2,1.24,3.81,5.62,3.63,8.21-.08,1.18-.73,1.91-1.82,2.06-.09.01-.19.02-.28.02Zm-1.4-8.16c.04,2.3.3,5.77.64,6.39.36.65.72.6.88.58.39-.05.75-.21.8-.97.11-1.58-1.21-4.29-2.32-6Z"/>
          <path class="cls-11" d="m215.83,428.26h-.02l-54.65-1.54c-.33,0-.58-.28-.58-.61,0-.33.32-.58.61-.58l54.65,1.54c.33,0,.58.28.58.61,0,.32-.27.58-.59.58Z"/>
          <path class="cls-11" d="m192.7,420.37c-.12,0-.24-.04-.34-.11-.27-.19-.33-.56-.14-.83,1.83-2.58,3.17-3.21,3.32-3.27.3-.13.65.01.78.31.13.3,0,.64-.31.77-.04.02-1.2.58-2.83,2.87-.12.16-.3.25-.48.25Z"/>
          <path class="cls-11" d="m189.08,419.44c-.12,0-.24-.04-.34-.11-.27-.19-.33-.56-.14-.83,1.83-2.58,3.17-3.21,3.32-3.27.3-.13.65.01.78.31.13.3,0,.64-.31.77-.03.02-1.2.58-2.83,2.87-.12.16-.3.25-.48.25Z"/>
          <path class="cls-11" d="m185.83,418.42c-.12,0-.24-.04-.34-.11-.27-.19-.33-.56-.14-.83,1.83-2.58,3.17-3.21,3.32-3.27.3-.13.65.01.78.31.13.3,0,.64-.31.77-.04.02-1.2.58-2.83,2.87-.12.16-.3.25-.48.25Z"/>
        </g>
        <g>
          <path class="cls-12" d="m103.59,291.69c1.66,1.07,17.97,2.69,41.01,7.14,21.99,4.24,34.61,5.45,44.37,15.82,6.17,6.56.88,60.28-5.68,81.5-10.87-1.33-11.81-.95-22.76-.77.13-18.83,1.51-55.03-.49-57.58-2.03-2.58-1.26-1.24-4.33-2.42l-52.12-43.69Z"/>
          <path class="cls-11" d="m161.27,354.48c-.28,0-.52-.23-.52-.51l-.2-22.32c0-.29.23-.52.51-.52h0c.28,0,.52.23.52.51l.2,22.32c0,.29-.23.52-.51.52h0Z"/>
        </g>
      </g>
      <g>
        <path class="cls-19" d="m389.16,395.66c-4.74,1.44-10.18,1.2-14.85-.57-18.53-7-20.05-27.39-16.96-42.98,2.07-10.45,5.73-20.67,6.56-31.27,1.27-16.23-3.9-33.87,4.86-48.03,1.84-2.98,4.44-5.79,7.99-6.88,5.22-1.6,11.14,1.1,14.29,5.24,3.14,4.14,4.03,9.36,4.23,14.4.46,11.32-2.02,22.63-1.17,33.93,1.1,14.48,8.65,28.11,9.56,42.6.61,9.78.27,23.21-8.33,30.31-1.79,1.48-3.9,2.56-6.17,3.25Z"/>
        <path class="cls-11" d="m379.96,402.81c-.38,0-.7-.31-.7-.69l-.89-97.24c0-.39.31-.7.69-.71h0c.38,0,.7.31.7.69l.89,97.24c0,.39-.31.7-.69.71h0Z"/>
        <path class="cls-18" d="m392.62,397.88c-4.18.23-8.54-.9-11.93-3.01-13.45-8.39-10-23.68-3.91-34.62,4.08-7.34,9.4-14.22,12.5-21.88,4.75-11.74,4.6-25.62,14.96-34.53,2.18-1.87,4.94-3.49,8.07-3.67,4.61-.27,8.8,2.76,10.4,6.35s1.12,7.6.13,11.35c-2.22,8.42-6.84,16.31-8.73,24.78-2.43,10.86.58,22.21-2.01,33.05-1.75,7.31-5.11,17.14-13.72,20.87-1.8.78-3.76,1.2-5.76,1.31Z"/>
        <path class="cls-11" d="m384.94,404.2s-.04,0-.06,0c-.38-.03-.67-.37-.64-.76,1.92-22.34,23.05-83.79,23.26-84.41.12-.37.52-.56.89-.43.37.13.56.52.43.89-.21.62-21.29,61.91-23.19,84.08-.03.36-.34.64-.7.64Z"/>
        <path class="cls-8" d="m369.19,404.66l-9.97,41.78h45.97l-8.95-41.48c-.28-1.29-1.42-2.22-2.74-2.24l-21.52-.24c-1.32-.01-2.48.89-2.79,2.18Z"/>
        <g class="cls-17">
          <g class="cls-10">
            <path class="cls-2" d="m402.64,401.82c.19,1.55-.84,2.96-1.82,4.17-1.45,1.81-2.98,3.69-5.06,4.72-1.26.63-2.66.91-3.99,1.37-3.92,1.39-7.18,4.39-11.22,5.4-3.21.81-6.74.29-9.75,1.67-3.91,1.78-6.02,6.32-9.94,8.08l2.33-28.15,39.45,2.73Z"/>
          </g>
          <g class="cls-4">
            <path class="cls-21" d="m356.79,446.07c2.8-2.52,5.64-5.06,8.98-6.79s7.31-2.56,10.91-1.47c.9.27,1.78.67,2.72.76,2.82.29,5.11-2.04,7.35-3.77,6.03-4.68,14.02-5.77,21.61-6.7l.5,21.5-51.78-.21-.3-3.33Z"/>
          </g>
        </g>
      </g>
      <g>
        <path class="cls-1" d="m301.16,431.51s-10.13-22.28,18.9-32.74l5.37-26.8c.22-1.12,1.46-1.18,2.31-.41,1.76,1.6,6.3,7.34,6.3,7.34l9.18-.3s4.66-5.81,6.68-7.28c.53-.38,2.48-.73,2.8,1.48,1.57,10.77,6.27,69.43,3.82,71.88-2.7,2.7-57.38,0-57.38,0l2.03-13.16Z"/>
        <path class="cls-1" d="m302.08,426.55s-11.46,10.19-5.86,17.83c2.21,3.01,13.46,2,25.94,1.99,19.16-.02,41.59-.28,41.59-.28,0,0,3.92-6.87-.67-9.17-4.59-2.29-59.22-1.72-59.22-1.72"/>
        <path class="cls-11" d="m363.58,446.61c-.17,0-.33-.08-.43-.23-.16-.24-.09-.56.15-.72,1-.66,2.05-2.61,2.02-4.47-.02-1.12-.45-2.69-2.33-3.82-2.29-1.37-9.39-.71-17.6.06-3.85.36-8.21.76-12.6,1.01-13.9.79-27.62-.65-27.75-.67-.28-.03-.49-.29-.46-.57.03-.28.27-.49.57-.46.14.01,13.77,1.45,27.58.66,4.38-.25,8.73-.66,12.57-1.01,8.74-.81,15.64-1.46,18.23.08,2.29,1.37,2.81,3.3,2.84,4.68.05,2.31-1.23,4.54-2.48,5.36-.09.06-.19.08-.28.08Z"/>
        <path class="cls-11" d="m296.22,444.9c-.16,0-.32-.07-.42-.21-2.43-3.31-2.15-7.58.8-12.36,2.18-3.53,5.01-6.06,5.13-6.16.21-.19.54-.17.73.04.19.21.17.54-.04.73-.11.1-11.04,9.97-5.79,17.14.17.23.12.55-.11.72-.09.07-.2.1-.31.1Z"/>
        <path class="cls-11" d="m337.25,387.26c0,.83-.67,1.5-1.5,1.5s-1.5-.67-1.5-1.5.67-1.5,1.5-1.5,1.5.67,1.5,1.5Z"/>
        <circle class="cls-11" cx="342.31" cy="387.26" r="1.5"/>
        <path class="cls-11" d="m332.75,438.45c-.25,0-.47-.18-.51-.43l-3.25-18.89c-.05-.28.14-.55.42-.6.29-.06.55.14.6.42l3.25,18.89c.05.28-.14.55-.42.6-.03,0-.06,0-.09,0Z"/>
        <path class="cls-11" d="m346.62,437.04s-.06,0-.09,0c-.28-.05-.47-.32-.42-.6l3.25-18.89c.05-.28.31-.48.6-.42.28.05.47.32.42.6l-3.25,18.89c-.04.25-.26.43-.51.43Z"/>
        <path class="cls-11" d="m339.98,437.08c-.28,0-.51-.22-.52-.5l-.6-15.51c-.01-.29.21-.53.5-.54.28,0,.53.21.54.5l.6,15.51c.01.29-.21.53-.5.54h-.02Z"/>
        <path class="cls-11" d="m339.57,421.43c-1.46,0-2.86-.24-3.12-.29-.28-.05-.47-.32-.42-.6.05-.28.32-.46.6-.42,1.56.28,4.38.48,5.31-.17.23-.16.56-.11.72.12.16.23.11.56-.12.72-.69.49-1.84.63-2.97.63Z"/>
        <path class="cls-11" d="m339.09,392.13c-.13,0-.27-.05-.37-.15l-1.6-1.6c-.14-.14-.19-.34-.13-.52.06-.18.22-.32.41-.35.87-.15,2.98-.45,3.66-.1.23.12.37.33.39.58,0,.21.03.77-2.1,2.08-.08.05-.18.08-.27.08Zm-.5-1.75l.57.57c.35-.23.69-.48.92-.68-.39,0-.93.04-1.49.11Z"/>
        <path class="cls-11" d="m332.78,379.74c-.27,0-.5-.21-.52-.48-.02-.29.19-.53.48-.55.4-.03,9.73-.69,12.25-.46.29.03.49.28.47.56-.03.29-.28.49-.56.47-2.44-.22-11.99.45-12.08.46-.01,0-.02,0-.04,0Z"/>
        <g class="cls-10">
          <path class="cls-2" d="m325.83,371.05c-1.84.74-1.84,8.27-1.84,8.27,0,0,5.98.37,6.25-1.47.08-.59-.79-1.87-1.56-3.4-.91-1.8-1.83-3.81-2.85-3.4Z"/>
        </g>
        <g class="cls-10">
          <path class="cls-2" d="m351.56,371.05c1.84.74,1.84,8.27,1.84,8.27,0,0-5.98.37-6.25-1.47-.08-.59.79-1.87,1.56-3.4.91-1.8,1.83-3.81,2.85-3.4Z"/>
        </g>
        <path class="cls-11" d="m319.01,402.64c-.16,0-.31-.07-.41-.2-.21-.26-.26-.33,2.14-10.49.07-.28.34-.45.62-.38.28.07.45.34.38.62-.82,3.49-2.13,9.17-2.22,9.88,0,.02,0,.03,0,.05,0,.29-.23.52-.52.52Z"/>
        <path class="cls-21" d="m315.12,400.95c.36,1.44.4,3.36.39,4.85-.01,1.49-.44,3.03-1.48,4.1-.73.75-1.75,1.28-2.16,2.24-.21.49-.24,1.04-.34,1.57-.41,2.32-2.23,4.33-4.49,4.97-2.27.64-5.26-.48-6.82-2.25,0,0,2.13-6.86,6.8-10.95,3.94-3.45,8.1-4.52,8.1-4.52Z"/>
        <path class="cls-18" d="m315.42,419.19c.06,0,.05-.1-.01-.1s-.05.1.01.1h0Z"/>
        <path class="cls-21" d="m316.74,415.34c-.16-.14-.33-.24-.52-.28-1.35-.36-2.89.2-3.44,1.55-.32.79-.21,1.76.31,2.44.36.47.88.79,1.44.99,1.09.39,2.52.19,3.09-.81.54-.94.08-3.07-.88-3.88Z"/>
      </g>
      <path class="cls-11" d="m429.06,447.26H1c-.55,0-1-.45-1-1s.45-1,1-1h428.06c.55,0,1,.45,1,1s-.45,1-1,1Z"/>
      <g>
        <g>
          <path class="cls-8" d="m375.8,153.46h-44.25c-1.62,0-2.92,1.31-2.92,2.92v23.76c0,1.62,1.31,2.92,2.92,2.92h2.89v4.82c0,.68.84,1.01,1.3.5l4.77-5.31h35.29c1.62,0,2.92-1.31,2.92-2.92v-23.76c0-1.62-1.31-2.92-2.92-2.92Z"/>
          <path class="cls-2" d="m371.07,161.32h-34.98c-.34,0-.62-.28-.62-.62s.28-.62.62-.62h34.98c.34,0,.62.28.62.62s-.28.62-.62.62Z"/>
          <path class="cls-2" d="m371.07,169.04h-34.98c-.34,0-.62-.28-.62-.62s.28-.62.62-.62h34.98c.34,0,.62.28.62.62s-.28.62-.62.62Z"/>
          <path class="cls-2" d="m363.73,176.71h-27.63c-.34,0-.62-.28-.62-.62s.28-.62.62-.62h27.63c.34,0,.62.28.62.62s-.28.62-.62.62Z"/>
        </g>
        <g>
          <rect class="cls-1" x="300.73" y="117.06" width="32.57" height="21.71" rx="2.09" ry="2.09"/>
          <g class="cls-7">
            <polygon class="cls-2" points="332.29 140.41 320.62 127.56 332.26 115.94 331.44 114.93 316.7 129.64 302.34 113.83 301.47 114.79 313.14 127.64 301.49 139.26 302.32 140.26 314.01 128.6 316.65 131.51 319.7 128.47 331.42 141.37 332.29 140.41"/>
          </g>
          <g>
            <circle class="cls-18" cx="330.07" cy="117.32" r="7.26"/>
            <g>
              <path class="cls-2" d="m325.3,118.73h1.01v-2.57h-1.02v-.54c.19-.02.42-.08.7-.18.28-.1.52-.21.74-.33h.45v3.61h.93v.71h-2.8v-.71Z"/>
              <path class="cls-2" d="m329.2,119.31c-.22-.13-.38-.36-.5-.69-.12-.33-.17-.78-.17-1.35s.06-1.02.17-1.35c.12-.33.28-.56.5-.69.22-.13.49-.2.82-.2s.6.07.82.2c.22.13.38.36.5.69.12.33.17.77.17,1.34s-.06,1.02-.17,1.34c-.12.33-.28.56-.5.69-.22.13-.49.2-.82.2s-.6-.07-.82-.2Zm1.19-.64c.09-.09.14-.23.18-.41.03-.18.05-.44.05-.76v-.44c0-.32-.02-.58-.05-.76-.03-.18-.09-.32-.18-.41-.09-.09-.21-.14-.37-.14s-.29.05-.37.14c-.09.09-.14.23-.18.41-.03.18-.05.44-.05.76v.44c0,.32.02.58.05.76.03.18.09.32.18.41.09.09.21.14.37.14s.29-.04.37-.14Z"/>
              <path class="cls-2" d="m332.04,119.2c0-.24.05-.45.16-.65.1-.19.23-.36.39-.5.15-.14.35-.3.6-.48.21-.16.38-.3.51-.41.12-.11.23-.23.31-.36.1-.16.16-.35.16-.55,0-.13-.05-.25-.15-.36-.1-.1-.24-.15-.42-.15-.42,0-.62.2-.62.6v.26h-.86s0-.04-.02-.09c0-.05,0-.1,0-.16,0-.44.15-.76.44-.98.29-.22.66-.33,1.11-.33.39,0,.69.08.9.23.21.15.35.32.41.51.07.19.1.37.1.53,0,.29-.07.55-.2.77-.13.23-.28.41-.46.57-.18.15-.4.32-.66.5-.2.14-.35.25-.45.34-.07.06-.12.12-.16.18h1.96v.77h-3.02v-.23Z"/>
            </g>
          </g>
        </g>
        <g>
          <rect class="cls-1" x="247.52" y="157.89" width="30.88" height="27.36" rx="2" ry="2"/>
          <g>
            <path class="cls-2" d="m272.44,165.4h-15.38c-.39,0-.71-.32-.71-.71h0c0-.39.32-.71.71-.71h15.38c.39,0,.71.32.71.71h0c0,.39-.32.71-.71.71Z"/>
            <path class="cls-2" d="m254,164.69c0,.58-.47,1.05-1.05,1.05s-1.05-.47-1.05-1.05.47-1.05,1.05-1.05,1.05.47,1.05,1.05Z"/>
            <path class="cls-2" d="m272.44,172.5h-15.38c-.39,0-.71-.32-.71-.71h0c0-.39.32-.71.71-.71h15.38c.39,0,.71.32.71.71h0c0,.39-.32.71-.71.71Z"/>
            <path class="cls-2" d="m254,171.79c0,.58-.47,1.05-1.05,1.05s-1.05-.47-1.05-1.05.47-1.05,1.05-1.05,1.05.47,1.05,1.05Z"/>
            <path class="cls-2" d="m272.44,179.61h-15.38c-.39,0-.71-.32-.71-.71h0c0-.39.32-.71.71-.71h15.38c.39,0,.71.32.71.71h0c0,.39-.32.71-.71.71Z"/>
            <path class="cls-2" d="m254,178.9c0,.58-.47,1.05-1.05,1.05s-1.05-.47-1.05-1.05.47-1.05,1.05-1.05,1.05.47,1.05,1.05Z"/>
          </g>
        </g>
        <g>
          <rect class="cls-19" x="284.58" y="144.66" width="37.81" height="31.33" rx="2.33" ry="2.33"/>
          <path class="cls-18" d="m322.39,153.65v-6.66c0-1.28-1.04-2.33-2.33-2.33h-33.16c-1.28,0-2.33,1.04-2.33,2.33v6.66h37.81Z"/>
          <g>
            <path class="cls-2" d="m296.72,166.65h2.31v-5.86h-2.33v-1.22c.43-.05.96-.18,1.59-.4.63-.22,1.19-.47,1.69-.76h1.02v8.25h2.11v1.61h-6.4v-1.61Z"/>
            <path class="cls-2" d="m304.95,167.56c-.63-.58-.94-1.37-.94-2.36h2.03c0,.51.13.91.38,1.19.25.29.61.43,1.06.43s.79-.15,1.04-.45c.25-.3.38-.75.38-1.33,0-.54-.13-.94-.39-1.22-.26-.28-.6-.42-1.02-.42-.29,0-.53.06-.73.19-.2.12-.38.29-.55.5l-1.87-.23.39-5.46h5.7v1.75h-3.97l-.13,2.18c.23-.14.48-.26.75-.35.27-.09.59-.14.98-.14.84,0,1.53.27,2.06.81.53.54.8,1.33.8,2.38s-.31,1.91-.92,2.5c-.61.59-1.46.89-2.53.89s-1.89-.29-2.52-.87Z"/>
          </g>
          <g>
            <path class="cls-11" d="m294.1,147.78c-.34,0-.61-.27-.61-.61v-3.1c0-.34.27-.61.61-.61s.61.27.61.61v3.1c0,.34-.27.61-.61.61Z"/>
            <path class="cls-11" d="m303.49,147.78c-.34,0-.61-.27-.61-.61v-3.1c0-.34.27-.61.61-.61s.61.27.61.61v3.1c0,.34-.27.61-.61.61Z"/>
            <path class="cls-11" d="m312.88,147.78c-.34,0-.61-.27-.61-.61v-3.1c0-.34.27-.61.61-.61s.61.27.61.61v3.1c0,.34-.27.61-.61.61Z"/>
          </g>
        </g>
        <g>
          <g>
            <circle class="cls-2" cx="262.49" cy="130.5" r="18.57" transform="translate(31.53 311.04) rotate(-64.45)"/>
            <path class="cls-18" d="m262.49,150.36c-10.95,0-19.86-8.91-19.86-19.86s8.91-19.86,19.86-19.86,19.86,8.91,19.86,19.86-8.91,19.86-19.86,19.86Zm0-37.13c-9.52,0-17.27,7.75-17.27,17.27s7.75,17.27,17.27,17.27,17.27-7.75,17.27-17.27-7.75-17.27-17.27-17.27Z"/>
          </g>
          <path class="cls-11" d="m270.49,132.4h-8.61c-.44,0-.79-.35-.79-.79v-12.67c0-.44.35-.79.79-.79s.79.35.79.79v11.88h7.82c.44,0,.79.35.79.79s-.35.79-.79.79Z"/>
        </g>
      </g>
      <g>
        <g>
          <path class="cls-8" d="m39.36,290.96s-13.83-82.47.55-102.81c5.44-7.69,30.12-2.15,30.12-2.15,11.8,11.94,17.84,24.31,22.17,40.52,4.33,16.21,12.22,51.28,13.7,67.99-13.58.03-66.53-3.56-66.53-3.56Z"/>
          <g>
            <g>
              <path class="cls-15" d="m88.53,281.47s13.48,5.2,13.83,10.38c.31,4.54-15.18.69-15.18.69l1.35-11.07Z"/>
              <path class="cls-11" d="m102.13,292.64c-.12,0-.25-.04-.35-.14-1.42-1.31-4.81-2.51-4.84-2.52-.27-.09-.41-.39-.32-.66s.39-.41.66-.32c.15.05,3.62,1.29,5.2,2.73.21.19.22.52.03.73-.1.11-.24.17-.38.17Z"/>
              <path class="cls-11" d="m99.71,294.21c-.12,0-.23-.04-.33-.12-1.25-1.02-3.94-1.96-3.96-1.97-.27-.09-.41-.39-.32-.66.09-.27.39-.41.66-.32.12.04,2.89,1.01,4.28,2.15.22.18.25.51.07.73-.1.12-.25.19-.4.19Z"/>
            </g>
            <path class="cls-8" d="m55.31,222.04c-6.7,24.1-4.38,24.12-11.48,47.36,14.14,4.47,35.03,4.99,47.78,12.56-.32,2.64-1.23,9.9-1.91,10.58-1.07,1.08-56.43,6.21-70.01-8.06-10.98-11.53-2.99-79.82,21.25-97.45,7.65-5.57,14.37,35.01,14.37,35.01Z"/>
            <path class="cls-11" d="m72.55,295.06c-.29,0-.52-.23-.52-.52s.23-.52.52-.52c2.8,0,14.07-.98,16.3-1.18l2.14-10.48c-8.33-3.53-18.42-5.7-28.19-7.8-6.88-1.48-13.37-2.87-19.12-4.69-.27-.08-.42-.37-.34-.64,3.76-12.3,4.89-18.17,6.09-24.39,1.1-5.71,2.24-11.62,5.39-22.96.08-.28.36-.44.64-.36.28.08.44.36.36.64-3.14,11.29-4.27,17.18-5.37,22.88-1.19,6.16-2.31,11.98-5.96,24,5.58,1.73,11.88,3.08,18.54,4.51,9.97,2.14,20.28,4.35,28.77,8.02.22.1.35.34.3.58l-2.3,11.27c-.05.22-.23.39-.46.41-.56.05-13.64,1.21-16.77,1.21Z"/>
          </g>
          <g>
            <g>
              <g>
                <path class="cls-15" d="m132.65,172.32c-2.63-.18-3.39,2.55-3.48-3.42-.05-3.14-1.52-6.72-1.8-9.37-.14-1.35.49-1.98.89-2.22.67-.4,1.35-.02,1.35-.02.22-1.07,1.79-.92,2.12-.88.63.09,1.02.7,1.02.7,0,0,.28-.82,1.71-.78.86.02,1.35.27,1.6.82,0,0,1.64-.42,2.15.82.25.61,1.62,4.36,1.75,11.16.08,4.19-1.57,3.53-4.1,3.36l-3.21-.18Z"/>
                <path class="cls-11" d="m136.81,164.79c-.32,0-.58-.25-.59-.57-.09-2.87-.58-6.52-.58-6.56-.05-.32.17-.62.49-.67.32-.05.62.16.68.48,0,.03.51,3.73.6,6.71.01.33-.25.6-.57.61,0,0-.01,0-.02,0Z"/>
                <path class="cls-11" d="m133.9,164.65c-.32,0-.58-.25-.59-.57-.09-2.88-.83-6.67-.83-6.71-.06-.32.14-.63.46-.69.32-.07.63.14.7.46,0,.04.76,3.93.86,6.9.01.33-.25.6-.57.61,0,0-.01,0-.02,0Z"/>
                <path class="cls-11" d="m130.93,164.7c-.32,0-.58-.25-.59-.57-.09-2.95-.82-6.71-.85-6.87-.06-.31.13-.62.44-.7.31-.07.62.1.7.41,0,.02,0,.04.01.06.03.16.78,4.01.87,7.06.01.33-.25.6-.57.61,0,0-.01,0-.02,0Z"/>
              </g>
              <path class="cls-15" d="m124.95,163.41c-1.15.89.41,3.17,1.91,5.03.71.88,1.56,2.12,2.28,2.45,1.06.48.7-3.86.7-3.86,0,0-2.56-5.41-4.88-3.62Z"/>
              <path class="cls-11" d="m128.79,166.43c-.22,0-.43-.12-.53-.33,0-.02-.77-1.56-1.87-2.39-.26-.2-.31-.57-.12-.83.2-.26.57-.31.83-.12,1.33,1,2.18,2.74,2.22,2.82.14.29.02.65-.27.79-.08.04-.17.06-.26.06Z"/>
            </g>
            <path class="cls-8" d="m126.41,171.84c.3,7.29-4.76,40.63-8.37,40.63-8.29,0-31-16.48-45.73-23.85l5.96,37.87c7.06,3.01,37.52,18.08,49.39,12.9,22.32-9.74,14.28-69.93,14.28-69.93l-15.53,2.38Z"/>
          </g>
          <path class="cls-11" d="m96.03,246c-.26,0-.48-.2-.51-.46-4.01-36.1-23.38-56.36-23.58-56.56-.2-.21-.2-.53,0-.73.2-.2.53-.2.73,0,.2.2,19.81,20.7,23.87,57.17.03.28-.17.54-.46.57-.02,0-.04,0-.06,0Z"/>
        </g>
        <g>
          <path class="cls-11" d="m43.84,169.02s-6.16-.2-6.44-8.77c0,0,4.34,1.43,6.14,1.39,0,0,.19,7.68.3,7.38Z"/>
          <path class="cls-15" d="m86.83,131.05c.85,3.57,2.51,9.97,3.04,13.6.99,6.87,1.7,11.47.91,18.4-.45,3.89-1.71,7.79-4.2,11.03-4.76,6.2-18.05,5.32-18.05,5.32l.53,7.77s-12.14,5.01-23.98-.41l-1.82-23.71s-4.96,0-8.06-2.28c-3.04-2.24-2.34-11.09,4.7-11.08,6.52.01,7.26.84,7.26.84l6.64-17.5,33.03-1.97Z"/>
          <g>
            <path class="cls-11" d="m38.42,156.27c-.14,0-.28-.06-.38-.17-.19-.21-.18-.54.03-.73,1.74-1.6,5.08-2.03,5.22-2.04.29-.04.54.17.58.45.04.28-.17.54-.45.58-.03,0-3.15.41-4.65,1.78-.1.09-.22.14-.35.14Z"/>
            <path class="cls-11" d="m41.69,158.5c-.2,0-.39-.11-.47-.31-.43-.96-.79-2.18-1.08-3.62-.06-.28.13-.55.41-.61.28-.06.55.13.61.41.33,1.7.73,2.78,1.01,3.4.12.26,0,.57-.26.68-.07.03-.14.05-.21.05Z"/>
          </g>
          <path class="cls-11" d="m71.08,150.5c.07.91.91,1.59,1.86,1.52.96-.08,1.67-.88,1.6-1.79-.07-.91-.91-1.59-1.86-1.52-.96.08-1.67.88-1.6,1.79Z"/>
          <path class="cls-11" d="m82.57,150.75c.73.59,1.82.5,2.45-.2.62-.7.54-1.75-.19-2.34-.73-.59-1.82-.5-2.45.2s-.54,1.75.19,2.34Z"/>
          <path class="cls-11" d="m77.3,161.5c-.54,0-1.09-.07-1.63-.2-1.1-.28-2.07-.81-2.81-1.53-.2-.2-.2-.53,0-.73.2-.2.53-.2.73,0,.59.59,1.42,1.04,2.33,1.27,1,.25,2.04.23,2.91-.07.27-.09.56.05.66.32.09.27-.05.56-.32.66-.58.2-1.22.3-1.87.3Z"/>
          <path class="cls-11" d="m68.58,182.23l-11.67-2.9s.18-1.49.54-1.35c3.37,1.28,10.99,1.45,10.99,1.45l.15,2.8Z"/>
          <path class="cls-11" d="m74.54,143.57c-1.18-.88-4.27.03-5.14.48,0,0-.6.87.16,1.66.89.91,3.77.13,4.85-.01.09-.01.18-.03.25-.07.09-.06.13-.16.16-.26.13-.37.23-.77.14-1.15-.07-.28-.21-.49-.42-.65Z"/>
          <path class="cls-11" d="m86.07,142.78c-1.16-.9-4.27-.06-5.15.38,0,0-.62.86.13,1.66.87.93,3.76.21,4.85.08.09-.01.18-.02.25-.07.09-.06.13-.16.17-.26.14-.37.24-.76.16-1.14-.06-.28-.2-.49-.41-.65Z"/>
          <path class="cls-11" d="m36.92,126.33c-4.85,7.83-3.92,18.97-1.69,25.12,0,0,7.1-3.32,12.6.11,1.81,1.13,1.14,6.53,6.3,5.99,4.77-.5,2.91-11.84,2.4-20.85,0,0,25.2,1,30.09-5.62,1.7-2.3,1.89-6.75-3.27-10.78-7.72-6.04-42.58-.19-46.43,6.03Z"/>
          <path class="cls-11" d="m56.94,190.38c-2.44,0-4.53-.33-6.19-.74-4.43-1.1-6.9-3.02-7-3.1-.22-.18-.26-.5-.09-.73.18-.23.5-.26.73-.09.09.07,9.69,7.38,24.74.98.26-.11.57.01.68.27.11.26-.01.57-.27.68-4.81,2.05-9.07,2.73-12.59,2.73Z"/>
        </g>
      </g>
    </g>
  </g>
</svg>